# xmcd
#
# Track frame offsets: 
#        150
#        17559
#        32901
#        49891
#
# Disc length: 884 seconds
#
# Revision: 0
# Processed by: cddbd v1.5.2PL0 Copyright (c) Steve Scherf et al.
# Submitted via: ExactAudioCopyFreeDBPlugin 1.0
#
DISCID=2b037204
DTITLE=The Martin Harley Band - Barebones
DYEAR=2012
DGENRE=Blues
TTITLE0=Honey Bee
TTITLE1=Drumrolls For Somersaults
TTITLE2=How Long
TTITLE3=When I Go
EXTD=
EXTT0=
EXTT1=
EXTT2=
EXTT3=
PLAYORDER=
